PathFileType	4	(X/Y/Z)	./resultDataOpenSim/trcMotMarkerGrf/sub06/qtm-13-07.trc
DataRate	CameraRate	NumFrames	NumMarkers	Units	OrigDataRate	OrigDataStartFrame	OrigNumFrames
250.000000	250.000000	10	24	m	250.000000	65	519
Frame#	Time	L.Toe.Tip			R.Toe.Tip			L.Ankle.Lat			R.Ankle.Lat			L.Ankle.Med			R.Ankle.Med			L.Heel			R.Heel			L.Knee.Lat			R.Knee.Lat			L.Knee.Med			R.Knee.Med			L.Thigh.Upper			R.Thigh.Upper			L.ASIS			R.ASIS			V.Sacral			L.Acromium			R.Acromium			C7			L.Elbow			R.Elbow			L.Wrist.Lat			R.Wrist.Lat
		X1	Y1	Z1	X2	Y2	Z2	X3	Y3	Z3	X4	Y4	Z4	X5	Y5	Z5	X6	Y6	Z6	X7	Y7	Z7	X8	Y8	Z8	X9	Y9	Z9	X10	Y10	Z10	X11	Y11	Z11	X12	Y12	Z12	X13	Y13	Z13	X14	Y14	Z14	X15	Y15	Z15	X16	Y16	Z16	X17	Y17	Z17	X18	Y18	Z18	X19	Y19	Z19	X20	Y20	Z20	X21	Y21	Z21	X22	Y22	Z22	X23	Y23	Z23	X24	Y24	Z24

65	0.256	-1.4723535	0.066037627	-0.10095144	-0.7869166	0.035779387	0.05912251	-1.459858	0.19604179	-0.13469986	-0.91919524	0.062017352	0.080257901	-1.4426184	0.19891544	-0.052929732	-0.90356219	0.079377484	-0.0068801281	-1.5021477	0.2564004	-0.087606448	-0.9775635	0.03773891	0.018827023	-1.1217406	0.37272898	-0.15660426	-0.86545256	0.44380587	0.10610382	-1.1142957	0.35943955	-0.039313048	-0.90926043	0.42928922	-0.014393785	-1.0781703	0.76032245	-0.16844349	-1.0185727	0.78887194	0.17033184	-0.99113353	0.80989762	-0.13640983	-0.94407219	0.83495996	0.099066192	-1.1478584	0.90411143	0.012857974	-1.0116245	1.3094507	-0.17958586	-1.0145451	1.2836296	0.18299914	-1.0890961	1.3386211	0.0019674323	-1.0314384	0.98623965	-0.24238446	-1.1401966	0.99423448	0.22573712	-0.83780377	0.8328986	-0.23247316	-1.0725261	0.77014984	0.28396512
66	0.26	-1.4591512	0.06817652	-0.10135067	-0.78699309	0.035753387	0.059167599	-1.4486645	0.1985324	-0.13451835	-0.91937875	0.061935109	0.080284793	-1.4307697	0.20147042	-0.052834899	-0.90347004	0.079419608	-0.0068041841	-1.4911147	0.25812331	-0.08664638	-0.97761838	0.037751622	0.01885573	-1.1097818	0.37322416	-0.15743288	-0.86307741	0.44348815	0.10680911	-1.1020362	0.36001611	-0.039864077	-0.90675511	0.4295688	-0.013909018	-1.0713359	0.76162158	-0.16781632	-1.0132016	0.78989135	0.17053565	-0.9847435	0.81128191	-0.13614429	-0.93774774	0.83603276	0.099695244	-1.1420909	0.90588641	0.013979221	-1.0056246	1.3108349	-0.17944247	-1.0077237	1.2850048	0.18324508	-1.0825993	1.3401594	0.0023639802	-1.0262416	0.98774107	-0.24164314	-1.1326365	0.99485785	0.22633918	-0.83460931	0.8323532	-0.23312226	-1.0620746	0.77148863	0.28453551
67	0.264	-1.4455012	0.070092959	-0.1017416	-0.78708869	0.035734812	0.059217299	-1.4370601	0.2007849	-0.13430323	-0.91980566	0.061790892	0.080321432	-1.4191242	0.20368403	-0.052500951	-0.90342954	0.079446334	-0.0067226051	-1.4798983	0.25958582	-0.085677039	-0.97768285	0.037772276	0.018882215	-1.0976907	0.3738561	-0.15823162	-0.86103487	0.44315544	0.10752899	-1.0898546	0.36080396	-0.040308579	-0.90434453	0.42981937	-0.013449432	-1.0645024	0.76295693	-0.16720691	-1.006919	0.79110312	0.17103639	-0.97837039	0.81270898	-0.1358716	-0.93146628	0.83712937	0.10036582	-1.1364304	0.90766008	0.014785123	-0.99967838	1.3122766	-0.17930083	-1.0009693	1.2864481	0.18347677	-1.076159	1.3417126	0.0027209047	-1.0211017	0.98929879	-0.24096034	-1.1249721	0.99558162	0.22704618	-0.83135506	0.83188904	-0.2337352	-1.0518156	0.77287657	0.28505744
68	0.268	-1.4315333	0.071773765	-0.10216168	-0.78719591	0.035720903	0.05926863	-1.4250555	0.20273671	-0.13403476	-0.92046848	0.061608028	0.080360514	-1.4077267	0.20548547	-0.05192844	-0.90345535	0.079465654	-0.0066332998	-1.4685289	0.26078416	-0.084801759	-0.97775321	0.037801118	0.018905019	-1.0854554	0.37463038	-0.15900612	-0.85923894	0.44277285	0.10815508	-1.077693	0.36175506	-0.040702876	-0.90201586	0.43003179	-0.012996844	-1.0577295	0.7643286	-0.16676129	-0.9997837	0.79248079	0.17183857	-0.97197653	0.81418878	-0.13555259	-0.92527809	0.83825524	0.10107426	-1.1302126	0.90932889	0.015443766	-0.99377189	1.3137707	-0.1791658	-0.99428329	1.2879571	0.1836924	-1.0697697	1.3432688	0.0030476547	-1.0160084	0.99090919	-0.24027386	-1.1171867	0.99641624	0.22788173	-0.82794893	0.83151218	-0.23428654	-1.0417223	0.77429573	0.2855411
69	0.272	-1.417339	0.073217681	-0.10263386	-0.78730629	0.035709942	0.059320093	-1.412715	0.20437388	-0.13369707	-0.9211273	0.061456663	0.080404662	-1.3962142	0.20693179	-0.051275118	-0.9035393	0.079484258	-0.0065351818	-1.4569529	0.26173549	-0.084039011	-0.97782277	0.037832533	0.018927034	-1.073124	0.37553304	-0.15972647	-0.85751297	0.44237325	0.10863436	-1.0654895	0.36285396	-0.041079668	-0.89972541	0.43021156	-0.012584526	-1.0510177	0.76574781	-0.16647349	-0.99232949	0.79389023	0.17281828	-0.96555759	0.81571789	-0.13519847	-0.91923011	0.83940952	0.10181009	-1.1233155	0.91091579	0.016052566	-0.98788903	1.3153064	-0.17903715	-0.98766298	1.2895309	0.18389236	-1.0634218	1.3448285	0.0033486657	-1.0110351	0.9925608	-0.23974641	-1.1093366	0.99733397	0.22878799	-0.82445574	0.83121995	-0.23479918	-1.0317261	0.77575347	0.28599766
70	0.276	-1.4029703	0.074439921	-0.10316262	-0.78741294	0.035701531	0.059371903	-1.4001098	0.20570521	-0.1333054	-0.92145989	0.061415232	0.080464156	-1.3838933	0.20819159	-0.050809009	-0.90363981	0.079507156	-0.0064310903	-1.4451283	0.26248259	-0.083383919	-0.97788532	0.037862776	0.018952479	-1.0607699	0.37655062	-0.16035777	-0.85560919	0.44201808	0.10895498	-1.0532407	0.36409835	-0.041428071	-0.89743516	0.43037431	-0.012271462	-1.0443179	0.76722536	-0.16623026	-0.98513302	0.7951953	0.17381145	-0.95912607	0.81728968	-0.13483519	-0.91330714	0.8405801	0.10256226	-1.1161337	0.91249679	0.01664278	-0.982019	1.3168713	-0.17890847	-0.9810943	1.2911676	0.18407341	-1.0571081	1.346405	0.00362514	-1.0063322	0.99425107	-0.23974915	-1.1014675	0.99830533	0.22970118	-0.82105469	0.83100352	-0.23533428	-1.0216541	0.77729922	0.28642034
71	0.28	-1.3884401	0.075463118	-0.10372806	-0.78751099	0.035696195	0.059422367	-1.3873101	0.20675637	-0.1328877	-0.92137029	0.061494787	0.080546744	-1.3702944	0.20941359	-0.050723483	-0.90371423	0.079539394	-0.0063267944	-1.4330922	0.26305028	-0.082823066	-0.97793934	0.037895071	0.018982849	-1.048437	0.37768973	-0.1608998	-0.85339544	0.44172289	0.10912288	-1.0409546	0.36547596	-0.041741394	-0.89517719	0.43054025	-0.012056706	-1.0375716	0.76875256	-0.16592716	-0.97873824	0.79632636	0.17463233	-0.95269883	0.81889378	-0.13447586	-0.90745845	0.84175729	0.10332785	-1.1091265	0.91411747	0.017160952	-0.97615949	1.3184579	-0.17877694	-0.97455695	1.2928629	0.18423043	-1.0508259	1.3480085	0.0038786195	-1.0019776	0.99602028	-0.24051557	-1.0935827	0.99931751	0.23059059	-0.81791101	0.83085851	-0.2359516	-1.0113291	0.77898628	0.28678697
72	0.284	-1.3737113	0.076312708	-0.10428206	-0.78759707	0.035694703	0.059467382	-1.374373	0.20757176	-0.13246062	-0.92107523	0.061621783	0.080650504	-1.3558578	0.21055183	-0.050892903	-0.90375394	0.07958487	-0.0062272316	-1.4209071	0.26340825	-0.082320078	-0.97798682	0.037933935	0.019016777	-1.0361387	0.37896694	-0.16137502	-0.85102869	0.44147012	0.10920503	-1.0285936	0.36696634	-0.042040475	-0.89302039	0.43071864	-0.011883801	-1.0307501	0.77032465	-0.16554614	-0.97367192	0.79727269	0.17509157	-0.94630449	0.82051437	-0.13413382	-0.90165367	0.84294558	0.10411502	-1.1024435	0.91577604	0.017573754	-0.97031324	1.3200664	-0.17864375	-0.9680361	1.2946129	0.18436145	-1.0445727	1.3496305	0.0041116516	-0.99782938	0.99793313	-0.24171822	-1.0856477	1.0003773	0.23146704	-0.81507605	0.83078792	-0.23667319	-1.0007177	0.78082309	0.28708434
73	0.288	-1.3587183	0.077014544	-0.10477599	-0.78766972	0.035697574	0.059504166	-1.36133	0.2082012	-0.13203198	-0.92086212	0.061708246	0.0807641	-1.3414894	0.21143429	-0.050994539	-0.90377516	0.079643827	-0.0061358315	-1.4085668	0.26347599	-0.081799269	-0.97802955	0.037979293	0.019052017	-1.0238837	0.38038233	-0.16179952	-0.8489215	0.4412492	0.10932456	-1.0161148	0.36856685	-0.042341658	-0.89098532	0.43090413	-0.011728422	-1.0238801	0.77196967	-0.16516047	-0.97016719	0.79805044	0.17509381	-0.93998944	0.82213807	-0.13383487	-0.89589304	0.84416037	0.10493579	-1.0959019	0.9174188	0.017890204	-0.96447854	1.3216975	-0.17850621	-0.96152294	1.2964127	0.1844684	-1.0383425	1.3512521	0.0043273123	-0.99363643	0.99996976	-0.24263904	-1.0775874	1.0014999	0.2323826	-0.81245986	0.83079567	-0.23747054	-0.98991204	0.78277944	0.28731645
74	0.292	-1.3434486	0.077585197	-0.10521754	-0.78773101	0.035704437	0.059533784	-1.3481849	0.20866804	-0.13161457	-0.92083444	0.061725989	0.08087127	-1.3275008	0.21198956	-0.050881093	-0.90379364	0.079714089	-0.0060552211	-1.3960064	0.26319717	-0.081152068	-0.97806912	0.038028174	0.019087813	-1.0116816	0.38191253	-0.16217478	-0.84740703	0.44105619	0.10956725	-1.0035444	0.37030857	-0.042630413	-0.88905231	0.4310947	-0.011611847	-1.0170133	0.77372072	-0.16484295	-0.967766	0.79872392	0.17474799	-0.93378541	0.82376685	-0.13359381	-0.89017002	0.8454133	0.10579281	-1.0891719	0.91894554	0.018090396	-0.95864844	1.3233502	-0.17836284	-0.95501205	1.2982517	0.18455534	-1.032125	1.3528657	0.0045287092	-0.98922953	1.0020006	-0.2427934	-1.0693076	1.0026792	0.23340568	-0.80991244	0.83088144	-0.23829227	-0.97901079	0.78482325	0.28749397
